# xmcd
#
# Track frame offsets: 
#        150
#        10421
#        23041
#        35854
#        50112
#        62991
#        74481
#        85647
#        113597
#        127228
#        142464
#        156577
#        167966
#        181692
#        197023
#        207658
#        217302
#        231099
#        244863
#        258583
#        270220
#        280298
#        292897
#        306928
#        319642
#        334371
#        348498
#
# Disc length: 4861 seconds
#
# Revision: 1
# Processed by: cddbd v1.5.2PL0 Copyright (c) Steve Scherf et al.
# Submitted via: ExactAudioCopyFreeDBPlugin 1.0
#
DISCID=ba12fb1b
DTITLE=B.B. King - Complete Recordings 1949-1962 [Enlightenment Record
DTITLE=s]
DYEAR=2015
DGENRE=Blues
TTITLE0=Come By Here
TTITLE1=Just Sing the Blues
TTITLE2=Someday Baby
TTITLE3=Whole Lotta' Love
TTITLE4=Be Careful with a Fool
TTITLE5=(I'm Gonna) Quit My Baby
TTITLE6=Days of Old
TTITLE7=Sweet Sixteen
TTITLE8=Sneaking Around
TTITLE9=Don't Get Around Much Anymore
TTITLE10=Things Are Not the Same
TTITLE11=Fishin' After Men
TTITLE12=Servant's Prayer
TTITLE13=Precious Lord
TTITLE14=Old Time Religion
TTITLE15=Sweet Chariot
TTITLE16=Army of the Lord
TTITLE17=Save a Seat for Me
TTITLE18=Jesus Gave Me Water
TTITLE19=I Never Heard a Man
TTITLE20=I'm Willing to Run All the Way
TTITLE21=I'm Working on the Building
TTITLE22=I Was Blind
TTITLE23=I Had a Woman
TTITLE24=I've Got Right to Love My Baby
TTITLE25=What Way to Go
TTITLE26=Long Nights (The Feeling They Call the Blues)
EXTD=
EXTT0=
EXTT1=
EXTT2=
EXTT3=
EXTT4=
EXTT5=
EXTT6=
EXTT7=
EXTT8=
EXTT9=
EXTT10=
EXTT11=
EXTT12=
EXTT13=
EXTT14=
EXTT15=
EXTT16=
EXTT17=
EXTT18=
EXTT19=
EXTT20=
EXTT21=
EXTT22=
EXTT23=
EXTT24=
EXTT25=
EXTT26=
PLAYORDER=
